<?xml version="1.0" encoding="utf-8"?>
<!-- Generator: Adobe Illustrator 26.5.0, SVG Export Plug-In . SVG Version: 6.00 Build 0)  -->
<svg version="1.1" id="Layer_1" xmlns="http://www.w3.org/2000/svg" xmlns:xlink="http://www.w3.org/1999/xlink" x="0px" y="0px"
     viewBox="0 0 100 100" style="enable-background:new 0 0 100 100;" xml:space="preserve">
<style type="text/css">
	.st0{fill:#FFFFFF;}
</style>
    <g>
	<g>
		<g>
			<g>
				<g>
					<path class="st0" d="M47.9,4.8c4.7-0.4,9.6,0.2,13.9,1.9c4.5,1.9,8.3,4.5,11.5,7.9c3.6,3.8,6.2,8.5,7,13.6c0.2,1.1,0,1.9-0.4,3
						c-0.9,1.7-2.6,2.6-4.3,3c-1.5,0.2-3.2,0-4.5-1.1c-0.6-0.6-1.1-1.3-1.5-2.1c-0.9-1.9-1.7-3.8-2.8-5.8c-0.6-1.3-1.7-2.6-2.8-3.6
						c-2.8-3-6.6-4.9-10.7-5.5c-4-0.6-8.1-0.2-11.7,1.5c-2.1,1.1-4.3,2.6-6,4.5c-3,3.4-4.7,7.7-5.1,12.1c-0.2,3.4,0.4,7,2.1,10.2
						c0.9,1.5,1.7,3,3,4.3c1.1,1.3,2.6,2.3,3.8,3.2c1.7,0.9,3.2,1.9,5.1,2.6c2.1,0.9,4.3,1.5,6,3c1.1,0.9,1.9,1.9,2.1,3.2
						c0.2,1.7-0.2,3.4-1.3,4.7c-0.6,0.9-1.7,1.5-3,1.7c-1.7,0.4-3.4-0.2-4.9-0.6c-2.3-0.9-4.5-2.1-6.6-3.2c-1.1-0.6-2.3-1.1-3.2-1.7
						c-1.9-1.1-3.6-2.6-5.1-4c-7.9-7.9-10.9-20-7.9-30.5c1.7-5.3,4.5-10.2,8.5-13.9C34.3,8.2,40.9,5.4,47.9,4.8z"/>
                    <path class="st0" d="M52.6,32.1c1.1-0.2,2.3-0.2,3.4,0.4c3.8,1.9,7.7,4,11.3,6.4c1.7,1.3,3.4,2.6,4.9,4.3
						c7.5,7.9,10.2,20,6.8,30.5c-1.3,4-3.6,7.9-6.4,11.3c-2.1,2.6-4.9,4.7-7.9,6.4C56.7,96,46.4,96.6,37.9,93
						c-7-2.8-13-8.1-16.2-14.9c-1.1-2.1-1.9-4.7-2.1-7c-0.2-1.1,0-2.3,0.6-3.2c1.5-2.1,4.3-3.2,6.8-2.3c1.1,0.4,1.9,1.1,2.3,1.9
						c1.3,2.3,2.1,5.1,3.4,7.5c0.6,1.3,1.5,2.3,2.6,3.2c3,3,6.8,4.9,11.1,5.8c4.5,0.9,9.2,0,13-2.3c7.2-4.3,11.3-13.4,9.4-21.5
						c-0.4-1.7-1.1-3.4-1.9-5.1c-0.9-1.5-1.9-3-3.2-4c-0.9-0.6-1.5-1.5-2.6-1.9c-1.9-1.1-4-2.3-6-3.4c-1.5-0.9-2.8-1.5-4.3-2.3
						c-0.9-0.6-1.9-1.3-2.6-2.3c-0.6-1.3-0.6-3-0.2-4.3C48.8,34.2,50.5,32.5,52.6,32.1z"/>
				</g>
			</g>
		</g>
	</g>
</g>
</svg>