<?xml version="1.0" encoding="utf-8"?>
<!-- Generator: Adobe Illustrator 26.5.0, SVG Export Plug-In . SVG Version: 6.00 Build 0)  -->
<svg version="1.1" id="Layer_1" xmlns="http://www.w3.org/2000/svg" xmlns:xlink="http://www.w3.org/1999/xlink" x="0px" y="0px"
     viewBox="0 0 330 140" style="enable-background:new 0 0 330 140;" xml:space="preserve">
<style type="text/css">
	.st0{fill:#FFFFFF;}
</style>
    <g>
	<g>
		<g>
			<g>
				<g>
					<path class="st0" d="M28.6,31.1c4-0.4,8.1,0.2,11.8,1.7c3.7,1.5,7.1,3.7,9.8,6.6c3,3.2,5.2,7.2,6,11.5c0.1,0.8,0.1,1.7-0.3,2.4
						c-0.7,1.4-2.1,2.2-3.5,2.5c-1.3,0.3-2.7,0-3.7-0.8c-0.6-0.5-0.9-1.1-1.2-1.8c-0.8-1.6-1.4-3.3-2.3-4.8
						c-0.6-1.2-1.4-2.2-2.4-3.1c-2.4-2.4-5.6-4-9-4.7c-3.3-0.6-6.9-0.2-10,1.3c-1.9,1-3.6,2.2-5,3.8c-2.5,2.8-4,6.4-4.3,10.2
						c-0.2,2.9,0.3,6,1.7,8.6c0.7,1.3,1.5,2.5,2.5,3.5c1,1,2.1,1.9,3.3,2.7c1.4,0.8,2.8,1.6,4.3,2.1c1.8,0.7,3.6,1.3,5.1,2.5
						c0.8,0.7,1.6,1.6,1.7,2.7c0.2,1.4-0.2,2.9-1.1,4c-0.6,0.8-1.5,1.3-2.4,1.5c-1.4,0.3-2.9-0.1-4.2-0.6c-1.9-0.8-3.8-1.7-5.6-2.7
						c-0.9-0.5-1.9-0.9-2.8-1.5c-1.5-1-3-2.1-4.3-3.4C5.9,69,3.3,58.7,5.9,49.8c1.4-4.4,3.8-8.5,7.2-11.8
						C17.3,34,22.9,31.6,28.6,31.1z"/>
                    <path class="st0" d="M32.7,54c0.9-0.2,2-0.2,2.8,0.3c3.3,1.7,6.5,3.4,9.5,5.5c1.5,1.1,2.9,2.2,4.2,3.6
						c6.3,6.7,8.6,16.9,5.8,25.6c-1.2,3.5-3,6.7-5.4,9.5c-1.9,2.2-4.1,4-6.6,5.4c-6.8,3.9-15.4,4.5-22.6,1.5
						C14.6,103,9.6,98.6,6.8,92.8c-0.9-1.9-1.5-3.9-1.9-5.9c-0.2-1,0-2,0.5-2.8c1.2-1.8,3.7-2.7,5.8-2c0.9,0.3,1.6,0.9,2.1,1.7
						c1,2.1,1.8,4.2,2.9,6.2c0.6,1,1.3,1.9,2.1,2.7c2.5,2.5,5.8,4.2,9.3,4.8c3.7,0.7,7.7,0,11-2c6.2-3.5,9.5-11.3,7.9-18.2
						c-0.3-1.5-0.9-2.9-1.7-4.3c-0.7-1.3-1.6-2.5-2.7-3.5c-0.7-0.6-1.3-1.2-2.1-1.7c-1.7-1-3.3-2-5.1-2.8c-1.2-0.6-2.4-1.2-3.5-2
						c-0.8-0.6-1.7-1.1-2.1-2c-0.6-1.1-0.6-2.5-0.2-3.7C29.5,55.8,30.9,54.4,32.7,54z"/>
				</g>
			</g>
		</g>
	</g>
        <g>
		<g>
			<path class="st0" d="M85.3,67.3c-0.2-0.3-0.5-0.5-0.8-0.7c-0.3-0.2-0.6-0.3-1-0.5c-0.4-0.1-0.7-0.2-1.1-0.3
				c-0.4-0.1-0.7-0.1-1-0.1c-0.4,0-0.8,0-1.2,0.1c-0.4,0.1-0.7,0.2-1,0.4c-0.3,0.2-0.5,0.4-0.7,0.6c-0.2,0.2-0.2,0.5-0.2,0.8
				c0,0.4,0.1,0.7,0.3,1c0.2,0.3,0.4,0.5,0.7,0.6c0.3,0.2,0.7,0.3,1.1,0.3c0.4,0.1,0.9,0.1,1.5,0.2c0.8,0.1,1.6,0.2,2.4,0.5
				c0.8,0.2,1.5,0.6,2.1,1c0.6,0.4,1.1,1,1.4,1.7c0.4,0.7,0.5,1.6,0.5,2.6c0,1-0.2,1.8-0.6,2.6c-0.4,0.7-0.9,1.3-1.6,1.8
				c-0.7,0.5-1.4,0.8-2.3,1c-0.9,0.2-1.7,0.3-2.7,0.3c-0.7,0-1.5-0.1-2.2-0.2c-0.7-0.1-1.4-0.4-2.1-0.7c-0.7-0.3-1.2-0.7-1.8-1.1
				c-0.5-0.5-1-1-1.3-1.6l2.2-2.5c0.3,0.4,0.7,0.8,1.1,1.1c0.4,0.3,0.9,0.6,1.3,0.8c0.5,0.2,0.9,0.4,1.4,0.5
				c0.5,0.1,0.9,0.2,1.3,0.2c1,0,1.8-0.2,2.4-0.6c0.6-0.4,0.9-0.9,0.9-1.5c0-0.8-0.3-1.3-0.8-1.7c-0.6-0.4-1.4-0.6-2.6-0.7
				c-0.9-0.1-1.8-0.2-2.6-0.4c-0.8-0.2-1.5-0.5-2.1-0.9c-0.6-0.4-1.1-0.9-1.5-1.6c-0.4-0.7-0.5-1.5-0.5-2.6c0-0.9,0.2-1.7,0.6-2.3
				c0.4-0.7,0.9-1.2,1.5-1.7c0.6-0.5,1.3-0.8,2.1-1c0.8-0.2,1.6-0.3,2.5-0.3c1.3,0,2.5,0.2,3.5,0.6c1,0.4,2,1.1,2.8,2.2L85.3,67.3z"
            />
            <path class="st0" d="M105.7,80.7H92.9V63h12.5v3.6h-8.8V70h8.3v3.5h-8.3v3.6h9.2V80.7z"/>
            <path class="st0" d="M122.5,67.7c-0.5-0.5-1.1-0.9-1.9-1.2c-0.7-0.3-1.4-0.4-2.1-0.4c-1.6,0-2.9,0.5-3.9,1.4
				c-1,1-1.4,2.4-1.4,4.4c0,0.6,0.1,1.3,0.3,2c0.2,0.7,0.5,1.3,0.9,1.8c0.4,0.6,1,1,1.6,1.4c0.7,0.4,1.5,0.5,2.5,0.5
				c0.6,0,1.2-0.1,1.7-0.2c0.6-0.2,1.2-0.5,1.8-1v-2.8h-4v-3.3h7.3v7.7c-1.5,2.2-3.8,3.3-6.9,3.3c-1.6,0-3-0.3-4.1-0.8
				c-1.1-0.5-2.1-1.2-2.8-2.1c-0.7-0.9-1.2-1.9-1.6-3c-0.3-1.1-0.5-2.3-0.5-3.4c0-1.2,0.2-2.4,0.5-3.6c0.4-1.1,0.9-2.1,1.6-3
				c0.7-0.9,1.7-1.5,2.8-2.1c1.1-0.5,2.5-0.8,4-0.8c1.2,0,2.3,0.2,3.3,0.6c1,0.4,2,1.1,3,2.2L122.5,67.7z"/>
            <path class="st0" d="M145.3,63v9.9c0,1.3-0.2,2.5-0.5,3.6c-0.4,1-0.9,1.9-1.5,2.6c-0.7,0.7-1.5,1.2-2.4,1.6s-2,0.5-3.1,0.5
				c-1.1,0-2.1-0.2-3-0.5c-1-0.3-1.8-0.8-2.5-1.5c-0.7-0.7-1.3-1.5-1.7-2.6c-0.4-1-0.6-2.3-0.6-3.7V63h3.7v9.9
				c0,1.5,0.4,2.7,1.1,3.5c0.7,0.8,1.7,1.2,3,1.2c0.7,0,1.3-0.1,1.8-0.4c0.5-0.2,0.9-0.6,1.2-1c0.3-0.4,0.5-0.9,0.6-1.5
				c0.1-0.6,0.2-1.2,0.2-1.9V63H145.3z"/>
            <path class="st0" d="M154.4,80.7h-3.8V63h8c1,0,1.9,0.2,2.7,0.5c0.8,0.3,1.4,0.8,2,1.3c0.5,0.6,0.9,1.2,1.2,1.9
				c0.3,0.7,0.4,1.5,0.4,2.2c0,0.6-0.1,1.1-0.2,1.7c-0.1,0.5-0.3,1-0.6,1.5c-0.3,0.5-0.7,0.9-1.2,1.3s-1.2,0.8-2,1.1l4.6,5.9v0.3
				h-4.2l-4.3-5.8v-3.3c1.5,0,2.4-0.1,2.7-0.3c0.3-0.2,0.6-0.3,0.8-0.6c0.2-0.2,0.3-0.5,0.4-0.8c0.1-0.3,0.1-0.6,0.1-0.9
				c0-0.3-0.1-0.6-0.2-0.9c-0.1-0.3-0.3-0.6-0.5-0.9c-0.2-0.3-0.5-0.5-0.8-0.6c-0.3-0.2-0.7-0.3-1.1-0.3h-4.2V80.7z"/>
            <path class="st0" d="M168.9,71.8c0-5.4,3.9-9.3,9.3-9.3c5.4,0,9.4,3.9,9.4,9.3c0,5.4-3.9,9.3-9.4,9.3
				C172.9,81,168.9,77.2,168.9,71.8z M183.7,71.8c0-3.4-2.1-5.9-5.4-5.9c-3.3,0-5.4,2.5-5.4,5.9c0,3.3,2.1,5.9,5.4,5.9
				C181.6,77.7,183.7,75.1,183.7,71.8z"/>
            <path class="st0" d="M201.7,67.3c-0.2-0.3-0.5-0.5-0.8-0.7c-0.3-0.2-0.6-0.3-1-0.5c-0.4-0.1-0.7-0.2-1.1-0.3
				c-0.4-0.1-0.7-0.1-1-0.1c-0.4,0-0.8,0-1.2,0.1c-0.4,0.1-0.7,0.2-1,0.4c-0.3,0.2-0.5,0.4-0.7,0.6c-0.2,0.2-0.2,0.5-0.2,0.8
				c0,0.4,0.1,0.7,0.3,1c0.2,0.3,0.4,0.5,0.7,0.6s0.7,0.3,1.1,0.3s0.9,0.1,1.5,0.2c0.8,0.1,1.6,0.2,2.4,0.5c0.8,0.2,1.5,0.6,2.1,1
				c0.6,0.4,1.1,1,1.4,1.7c0.4,0.7,0.5,1.6,0.5,2.6c0,1-0.2,1.8-0.6,2.6c-0.4,0.7-0.9,1.3-1.6,1.8c-0.7,0.5-1.4,0.8-2.3,1
				c-0.9,0.2-1.7,0.3-2.7,0.3c-0.7,0-1.5-0.1-2.2-0.2c-0.7-0.1-1.4-0.4-2.1-0.7c-0.7-0.3-1.2-0.7-1.8-1.1c-0.5-0.5-1-1-1.3-1.6
				l2.2-2.5c0.3,0.4,0.7,0.8,1.1,1.1c0.4,0.3,0.9,0.6,1.3,0.8c0.5,0.2,0.9,0.4,1.4,0.5c0.5,0.1,0.9,0.2,1.3,0.2c1,0,1.8-0.2,2.4-0.6
				c0.6-0.4,0.9-0.9,0.9-1.5c0-0.8-0.3-1.3-0.8-1.7c-0.6-0.4-1.4-0.6-2.6-0.7c-0.9-0.1-1.8-0.2-2.6-0.4c-0.8-0.2-1.5-0.5-2.1-0.9
				c-0.6-0.4-1.1-0.9-1.5-1.6c-0.4-0.7-0.5-1.5-0.5-2.6c0-0.9,0.2-1.7,0.6-2.3c0.4-0.7,0.9-1.2,1.5-1.7c0.6-0.5,1.3-0.8,2.1-1
				c0.8-0.2,1.6-0.3,2.5-0.3c1.3,0,2.5,0.2,3.5,0.6c1,0.4,2,1.1,2.8,2.2L201.7,67.3z"/>
            <path class="st0" d="M226.8,67.3c-0.2-0.3-0.5-0.5-0.8-0.7c-0.3-0.2-0.6-0.3-1-0.5c-0.4-0.1-0.7-0.2-1.1-0.3
				c-0.4-0.1-0.7-0.1-1-0.1c-0.4,0-0.8,0-1.2,0.1c-0.4,0.1-0.7,0.2-1,0.4c-0.3,0.2-0.5,0.4-0.7,0.6c-0.2,0.2-0.2,0.5-0.2,0.8
				c0,0.4,0.1,0.7,0.3,1c0.2,0.3,0.4,0.5,0.7,0.6s0.7,0.3,1.1,0.3s0.9,0.1,1.5,0.2c0.8,0.1,1.6,0.2,2.4,0.5c0.8,0.2,1.5,0.6,2.1,1
				c0.6,0.4,1.1,1,1.4,1.7c0.4,0.7,0.5,1.6,0.5,2.6c0,1-0.2,1.8-0.6,2.6c-0.4,0.7-0.9,1.3-1.6,1.8c-0.7,0.5-1.4,0.8-2.3,1
				c-0.9,0.2-1.7,0.3-2.7,0.3c-0.7,0-1.5-0.1-2.2-0.2c-0.7-0.1-1.4-0.4-2.1-0.7c-0.7-0.3-1.2-0.7-1.8-1.1c-0.5-0.5-1-1-1.3-1.6
				l2.2-2.5c0.3,0.4,0.7,0.8,1.1,1.1c0.4,0.3,0.9,0.6,1.3,0.8c0.5,0.2,0.9,0.4,1.4,0.5c0.5,0.1,0.9,0.2,1.3,0.2c1,0,1.8-0.2,2.4-0.6
				c0.6-0.4,0.9-0.9,0.9-1.5c0-0.8-0.3-1.3-0.8-1.7c-0.6-0.4-1.4-0.6-2.6-0.7c-0.9-0.1-1.8-0.2-2.6-0.4c-0.8-0.2-1.5-0.5-2.1-0.9
				c-0.6-0.4-1.1-0.9-1.5-1.6c-0.4-0.7-0.5-1.5-0.5-2.6c0-0.9,0.2-1.7,0.6-2.3c0.4-0.7,0.9-1.2,1.5-1.7c0.6-0.5,1.3-0.8,2.1-1
				c0.8-0.2,1.6-0.3,2.5-0.3c1.3,0,2.5,0.2,3.5,0.6c1,0.4,2,1.1,2.8,2.2L226.8,67.3z"/>
            <path class="st0" d="M249.5,63v9.9c0,1.3-0.2,2.5-0.5,3.6c-0.4,1-0.9,1.9-1.5,2.6c-0.7,0.7-1.5,1.2-2.4,1.6
				c-0.9,0.4-2,0.5-3.1,0.5c-1.1,0-2.1-0.2-3-0.5c-1-0.3-1.8-0.8-2.5-1.5c-0.7-0.7-1.3-1.5-1.7-2.6c-0.4-1-0.6-2.3-0.6-3.7V63h3.7
				v9.9c0,1.5,0.4,2.7,1.1,3.5c0.7,0.8,1.7,1.2,3,1.2c0.7,0,1.3-0.1,1.8-0.4c0.5-0.2,0.9-0.6,1.2-1s0.5-0.9,0.6-1.5
				c0.1-0.6,0.2-1.2,0.2-1.9V63H249.5z"/>
            <path class="st0" d="M258.2,77.7l-1.2,3h-4l7.6-17.7h4.1l7.6,17.7h-4.1l-1.2-3l-1.4-3.5l-2.9-7.2l-2.9,7.2L258.2,77.7z M266.5,58
				l-2.8,3.6h-3v-0.2l1.8-3.5h4V58z"/>
            <path class="st0" d="M279.5,80.7h-3.8V63h8c1,0,1.9,0.2,2.7,0.5c0.8,0.3,1.4,0.8,2,1.3c0.5,0.6,0.9,1.2,1.2,1.9
				c0.3,0.7,0.4,1.5,0.4,2.2c0,0.6-0.1,1.1-0.2,1.7c-0.1,0.5-0.3,1-0.6,1.5c-0.3,0.5-0.7,0.9-1.2,1.3c-0.5,0.4-1.2,0.8-2,1.1
				l4.6,5.9v0.3h-4.2l-4.3-5.8v-3.3c1.5,0,2.4-0.1,2.7-0.3c0.3-0.2,0.6-0.3,0.8-0.6c0.2-0.2,0.3-0.5,0.4-0.8
				c0.1-0.3,0.1-0.6,0.1-0.9c0-0.3-0.1-0.6-0.2-0.9c-0.1-0.3-0.3-0.6-0.5-0.9c-0.2-0.3-0.5-0.5-0.8-0.6c-0.3-0.2-0.7-0.3-1.1-0.3
				h-4.2V80.7z"/>
            <path class="st0" d="M307.8,80.7H295V63h12.5v3.6h-8.8V70h8.3v3.5h-8.3v3.6h9.2V80.7z"/>
            <path class="st0" d="M311.9,63h12.9v1.7L316.7,77h8.3v3.7h-13.5v-2l8.2-12.3h-7.8V63z"/>
		</g>
	</g>
</g>
</svg>