<?xml version="1.0" encoding="utf-8"?>
<!-- Generator: Adobe Illustrator 26.5.0, SVG Export Plug-In . SVG Version: 6.00 Build 0)  -->
<svg version="1.1" id="Layer_1" xmlns="http://www.w3.org/2000/svg" xmlns:xlink="http://www.w3.org/1999/xlink" x="0px" y="0px"
     viewBox="0 0 257.2 48" style="enable-background:new 0 0 257.2 48;" xml:space="preserve">
<style type="text/css">
	.st0{fill:#FFFFFF;}
</style>
    <g>
	<g>
		<g>
			<g>
				<g>
					<path class="st0" d="M51.4,2.4c2.2-0.2,4.5,0.1,6.5,0.9C60,4.2,61.8,5.4,63.3,7c1.7,1.8,2.9,4,3.3,6.4c0.1,0.5,0,0.9-0.2,1.4
						c-0.4,0.8-1.2,1.2-2,1.4c-0.7,0.1-1.5,0-2.1-0.5c-0.3-0.3-0.5-0.6-0.7-1c-0.4-0.9-0.8-1.8-1.3-2.7c-0.3-0.6-0.8-1.2-1.3-1.7
						c-1.3-1.4-3.1-2.3-5-2.6c-1.9-0.3-3.8-0.1-5.5,0.7c-1,0.5-2,1.2-2.8,2.1c-1.4,1.6-2.2,3.6-2.4,5.7c-0.1,1.6,0.2,3.3,1,4.8
						c0.4,0.7,0.8,1.4,1.4,2c0.5,0.6,1.2,1.1,1.8,1.5c0.8,0.4,1.5,0.9,2.4,1.2c1,0.4,2,0.7,2.8,1.4c0.5,0.4,0.9,0.9,1,1.5
						c0.1,0.8-0.1,1.6-0.6,2.2c-0.3,0.4-0.8,0.7-1.4,0.8c-0.8,0.2-1.6-0.1-2.3-0.3c-1.1-0.4-2.1-1-3.1-1.5c-0.5-0.3-1.1-0.5-1.5-0.8
						c-0.9-0.5-1.7-1.2-2.4-1.9c-3.7-3.7-5.1-9.4-3.7-14.3c0.8-2.5,2.1-4.8,4-6.5C45,4,48.1,2.7,51.4,2.4z"/>
                    <path class="st0" d="M53.6,15.2c0.5-0.1,1.1-0.1,1.6,0.2c1.8,0.9,3.6,1.9,5.3,3c0.8,0.6,1.6,1.2,2.3,2
						c3.5,3.7,4.8,9.4,3.2,14.3c-0.6,1.9-1.7,3.7-3,5.3c-1,1.2-2.3,2.2-3.7,3c-3.8,2.2-8.6,2.5-12.6,0.8c-3.3-1.3-6.1-3.8-7.6-7
						c-0.5-1-0.9-2.2-1-3.3c-0.1-0.5,0-1.1,0.3-1.5c0.7-1,2-1.5,3.2-1.1c0.5,0.2,0.9,0.5,1.1,0.9c0.6,1.1,1,2.4,1.6,3.5
						c0.3,0.6,0.7,1.1,1.2,1.5c1.4,1.4,3.2,2.3,5.2,2.7c2.1,0.4,4.3,0,6.1-1.1c3.4-2,5.3-6.3,4.4-10.1c-0.2-0.8-0.5-1.6-0.9-2.4
						c-0.4-0.7-0.9-1.4-1.5-1.9c-0.4-0.3-0.7-0.7-1.2-0.9c-0.9-0.5-1.9-1.1-2.8-1.6c-0.7-0.4-1.3-0.7-2-1.1
						c-0.4-0.3-0.9-0.6-1.2-1.1c-0.3-0.6-0.3-1.4-0.1-2C51.8,16.2,52.6,15.4,53.6,15.2z"/>
				</g>
			</g>
		</g>
	</g>
        <g>
		<g>
			<path class="st0" d="M82.9,22.6c-0.1-0.1-0.3-0.3-0.5-0.4c-0.2-0.1-0.4-0.2-0.6-0.3c-0.2-0.1-0.4-0.1-0.6-0.1c-0.2,0-0.4,0-0.6,0
				c-0.2,0-0.4,0-0.7,0.1c-0.2,0.1-0.4,0.1-0.5,0.2c-0.2,0.1-0.3,0.2-0.4,0.3c-0.1,0.1-0.1,0.3-0.1,0.5c0,0.2,0,0.4,0.1,0.5
				c0.1,0.1,0.2,0.3,0.4,0.3s0.4,0.1,0.6,0.2c0.2,0,0.5,0.1,0.8,0.1c0.5,0,0.9,0.1,1.3,0.3c0.4,0.1,0.8,0.3,1.2,0.6
				c0.3,0.2,0.6,0.6,0.8,0.9c0.2,0.4,0.3,0.9,0.3,1.4c0,0.6-0.1,1-0.3,1.4c-0.2,0.4-0.5,0.7-0.9,1c-0.4,0.3-0.8,0.5-1.3,0.6
				c-0.5,0.1-1,0.2-1.5,0.2c-0.4,0-0.8,0-1.2-0.1c-0.4-0.1-0.8-0.2-1.2-0.4c-0.4-0.2-0.7-0.4-1-0.6c-0.3-0.3-0.5-0.6-0.7-0.9
				l1.2-1.4c0.2,0.2,0.4,0.5,0.6,0.6c0.2,0.2,0.5,0.3,0.7,0.4c0.3,0.1,0.5,0.2,0.8,0.3s0.5,0.1,0.8,0.1c0.6,0,1-0.1,1.4-0.3
				c0.3-0.2,0.5-0.5,0.5-0.9c0-0.4-0.1-0.7-0.5-0.9c-0.3-0.2-0.8-0.3-1.4-0.4c-0.5,0-1-0.1-1.4-0.2c-0.5-0.1-0.8-0.3-1.2-0.5
				c-0.3-0.2-0.6-0.5-0.8-0.9C77,23.9,77,23.4,77,22.8c0-0.5,0.1-0.9,0.3-1.3c0.2-0.4,0.5-0.7,0.8-0.9c0.3-0.3,0.7-0.4,1.2-0.6
				c0.4-0.1,0.9-0.2,1.4-0.2c0.7,0,1.4,0.1,1.9,0.3c0.6,0.2,1.1,0.6,1.6,1.2L82.9,22.6z"/>
            <path class="st0" d="M94.2,30h-7.1v-9.9h7v2h-4.9v1.9h4.6V26h-4.6v2h5.1V30z"/>
            <path class="st0" d="M103.6,22.8c-0.3-0.3-0.6-0.5-1-0.7c-0.4-0.1-0.8-0.2-1.2-0.2c-0.9,0-1.6,0.3-2.1,0.8
				c-0.5,0.5-0.8,1.3-0.8,2.4c0,0.4,0,0.7,0.1,1.1c0.1,0.4,0.3,0.7,0.5,1c0.2,0.3,0.5,0.6,0.9,0.8c0.4,0.2,0.8,0.3,1.4,0.3
				c0.3,0,0.7,0,1-0.1c0.3-0.1,0.7-0.3,1-0.6V26h-2.2v-1.8h4v4.3c-0.8,1.2-2.1,1.8-3.8,1.8c-0.9,0-1.7-0.2-2.3-0.5
				c-0.6-0.3-1.2-0.7-1.5-1.2c-0.4-0.5-0.7-1-0.9-1.7c-0.2-0.6-0.3-1.3-0.3-1.9c0-0.7,0.1-1.4,0.3-2c0.2-0.6,0.5-1.2,0.9-1.7
				c0.4-0.5,0.9-0.9,1.6-1.1c0.6-0.3,1.4-0.4,2.2-0.4c0.6,0,1.3,0.1,1.8,0.3c0.6,0.2,1.1,0.6,1.7,1.2L103.6,22.8z"/>
            <path class="st0" d="M116.3,20.2v5.5c0,0.8-0.1,1.4-0.3,2c-0.2,0.6-0.5,1-0.8,1.4s-0.8,0.7-1.3,0.9c-0.5,0.2-1.1,0.3-1.7,0.3
				c-0.6,0-1.2-0.1-1.7-0.3c-0.5-0.2-1-0.5-1.4-0.8c-0.4-0.4-0.7-0.9-0.9-1.4c-0.2-0.6-0.3-1.3-0.3-2v-5.5h2.1v5.5
				c0,0.9,0.2,1.5,0.6,1.9c0.4,0.4,1,0.7,1.7,0.7c0.4,0,0.7-0.1,1-0.2c0.3-0.1,0.5-0.3,0.6-0.5s0.3-0.5,0.4-0.8
				c0.1-0.3,0.1-0.7,0.1-1v-5.5H116.3z"/>
            <path class="st0" d="M121.3,30h-2.1v-9.9h4.5c0.6,0,1.1,0.1,1.5,0.3c0.4,0.2,0.8,0.4,1.1,0.7c0.3,0.3,0.5,0.7,0.7,1.1
				c0.1,0.4,0.2,0.8,0.2,1.2c0,0.3,0,0.6-0.1,0.9c-0.1,0.3-0.2,0.6-0.3,0.8c-0.2,0.3-0.4,0.5-0.7,0.7c-0.3,0.2-0.6,0.4-1.1,0.6
				l2.6,3.3V30h-2.3l-2.4-3.2v-1.8c0.8,0,1.3-0.1,1.5-0.1c0.2-0.1,0.3-0.2,0.4-0.3c0.1-0.1,0.2-0.3,0.2-0.4c0.1-0.2,0.1-0.3,0.1-0.5
				c0-0.2,0-0.3-0.1-0.5c-0.1-0.2-0.1-0.3-0.3-0.5s-0.3-0.3-0.4-0.4c-0.2-0.1-0.4-0.1-0.6-0.1h-2.4V30z"/>
            <path class="st0" d="M129.4,25.1c0-3,2.2-5.2,5.2-5.2c3,0,5.2,2.2,5.2,5.2s-2.2,5.2-5.2,5.2C131.6,30.2,129.4,28.1,129.4,25.1z
				 M137.7,25.1c0-1.9-1.2-3.3-3-3.3c-1.8,0-3,1.4-3,3.3c0,1.9,1.2,3.3,3,3.3C136.5,28.3,137.7,26.9,137.7,25.1z"/>
            <path class="st0" d="M147.7,22.6c-0.1-0.1-0.3-0.3-0.5-0.4c-0.2-0.1-0.4-0.2-0.6-0.3c-0.2-0.1-0.4-0.1-0.6-0.1
				c-0.2,0-0.4,0-0.6,0c-0.2,0-0.4,0-0.7,0.1c-0.2,0.1-0.4,0.1-0.5,0.2c-0.2,0.1-0.3,0.2-0.4,0.3c-0.1,0.1-0.1,0.3-0.1,0.5
				c0,0.2,0,0.4,0.1,0.5c0.1,0.1,0.2,0.3,0.4,0.3s0.4,0.1,0.6,0.2c0.2,0,0.5,0.1,0.8,0.1c0.5,0,0.9,0.1,1.3,0.3
				c0.4,0.1,0.8,0.3,1.2,0.6c0.3,0.2,0.6,0.6,0.8,0.9c0.2,0.4,0.3,0.9,0.3,1.4c0,0.6-0.1,1-0.3,1.4c-0.2,0.4-0.5,0.7-0.9,1
				c-0.4,0.3-0.8,0.5-1.3,0.6c-0.5,0.1-1,0.2-1.5,0.2c-0.4,0-0.8,0-1.2-0.1c-0.4-0.1-0.8-0.2-1.2-0.4c-0.4-0.2-0.7-0.4-1-0.6
				c-0.3-0.3-0.5-0.6-0.7-0.9l1.2-1.4c0.2,0.2,0.4,0.5,0.6,0.6c0.2,0.2,0.5,0.3,0.7,0.4c0.3,0.1,0.5,0.2,0.8,0.3s0.5,0.1,0.8,0.1
				c0.6,0,1-0.1,1.4-0.3c0.3-0.2,0.5-0.5,0.5-0.9c0-0.4-0.1-0.7-0.5-0.9c-0.3-0.2-0.8-0.3-1.4-0.4c-0.5,0-1-0.1-1.4-0.2
				c-0.5-0.1-0.8-0.3-1.2-0.5c-0.3-0.2-0.6-0.5-0.8-0.9c-0.2-0.4-0.3-0.8-0.3-1.4c0-0.5,0.1-0.9,0.3-1.3c0.2-0.4,0.5-0.7,0.8-0.9
				c0.3-0.3,0.7-0.4,1.2-0.6c0.4-0.1,0.9-0.2,1.4-0.2c0.7,0,1.4,0.1,1.9,0.3c0.6,0.2,1.1,0.6,1.6,1.2L147.7,22.6z"/>
            <path class="st0" d="M161.6,22.6c-0.1-0.1-0.3-0.3-0.5-0.4c-0.2-0.1-0.4-0.2-0.6-0.3c-0.2-0.1-0.4-0.1-0.6-0.1
				c-0.2,0-0.4,0-0.6,0c-0.2,0-0.4,0-0.7,0.1c-0.2,0.1-0.4,0.1-0.5,0.2c-0.2,0.1-0.3,0.2-0.4,0.3c-0.1,0.1-0.1,0.3-0.1,0.5
				c0,0.2,0,0.4,0.1,0.5c0.1,0.1,0.2,0.3,0.4,0.3s0.4,0.1,0.6,0.2c0.2,0,0.5,0.1,0.8,0.1c0.5,0,0.9,0.1,1.3,0.3
				c0.4,0.1,0.8,0.3,1.2,0.6c0.3,0.2,0.6,0.6,0.8,0.9c0.2,0.4,0.3,0.9,0.3,1.4c0,0.6-0.1,1-0.3,1.4c-0.2,0.4-0.5,0.7-0.9,1
				c-0.4,0.3-0.8,0.5-1.3,0.6c-0.5,0.1-1,0.2-1.5,0.2c-0.4,0-0.8,0-1.2-0.1c-0.4-0.1-0.8-0.2-1.2-0.4c-0.4-0.2-0.7-0.4-1-0.6
				c-0.3-0.3-0.5-0.6-0.7-0.9l1.2-1.4c0.2,0.2,0.4,0.5,0.6,0.6c0.2,0.2,0.5,0.3,0.7,0.4c0.3,0.1,0.5,0.2,0.8,0.3s0.5,0.1,0.8,0.1
				c0.6,0,1-0.1,1.4-0.3c0.3-0.2,0.5-0.5,0.5-0.9c0-0.4-0.1-0.7-0.5-0.9s-0.8-0.3-1.4-0.4c-0.5,0-1-0.1-1.4-0.2
				c-0.5-0.1-0.8-0.3-1.2-0.5c-0.3-0.2-0.6-0.5-0.8-0.9c-0.2-0.4-0.3-0.8-0.3-1.4c0-0.5,0.1-0.9,0.3-1.3c0.2-0.4,0.5-0.7,0.8-0.9
				c0.3-0.3,0.7-0.4,1.2-0.6c0.4-0.1,0.9-0.2,1.4-0.2c0.7,0,1.4,0.1,1.9,0.3c0.6,0.2,1.1,0.6,1.6,1.2L161.6,22.6z"/>
            <path class="st0" d="M174.3,20.2v5.5c0,0.8-0.1,1.4-0.3,2c-0.2,0.6-0.5,1-0.8,1.4c-0.4,0.4-0.8,0.7-1.3,0.9
				c-0.5,0.2-1.1,0.3-1.7,0.3c-0.6,0-1.2-0.1-1.7-0.3s-1-0.5-1.4-0.8c-0.4-0.4-0.7-0.9-0.9-1.4c-0.2-0.6-0.3-1.3-0.3-2v-5.5h2.1v5.5
				c0,0.9,0.2,1.5,0.6,1.9c0.4,0.4,1,0.7,1.7,0.7c0.4,0,0.7-0.1,1-0.2c0.3-0.1,0.5-0.3,0.6-0.5s0.3-0.5,0.4-0.8
				c0.1-0.3,0.1-0.7,0.1-1v-5.5H174.3z"/>
            <path class="st0" d="M179.1,28.3l-0.7,1.7h-2.3l4.2-9.9h2.3l4.2,9.9h-2.3l-0.7-1.7l-0.8-1.9l-1.6-4l-1.6,4L179.1,28.3z
				 M183.7,17.4l-1.6,2h-1.7v-0.1l1-2L183.7,17.4L183.7,17.4z"/>
            <path class="st0" d="M190.9,30h-2.1v-9.9h4.5c0.6,0,1.1,0.1,1.5,0.3c0.4,0.2,0.8,0.4,1.1,0.7c0.3,0.3,0.5,0.7,0.7,1.1
				c0.1,0.4,0.2,0.8,0.2,1.2c0,0.3,0,0.6-0.1,0.9c-0.1,0.3-0.2,0.6-0.3,0.8c-0.2,0.3-0.4,0.5-0.7,0.7c-0.3,0.2-0.6,0.4-1.1,0.6
				l2.6,3.3V30h-2.3l-2.4-3.2v-1.8c0.8,0,1.3-0.1,1.5-0.1c0.2-0.1,0.3-0.2,0.4-0.3c0.1-0.1,0.2-0.3,0.2-0.4c0.1-0.2,0.1-0.3,0.1-0.5
				c0-0.2,0-0.3-0.1-0.5c-0.1-0.2-0.1-0.3-0.3-0.5c-0.1-0.1-0.3-0.3-0.4-0.4c-0.2-0.1-0.4-0.1-0.6-0.1h-2.4V30z"/>
            <path class="st0" d="M206.7,30h-7.1v-9.9h7v2h-4.9v1.9h4.6V26h-4.6v2h5.1V30z"/>
            <path class="st0" d="M209,20.2h7.2v1l-4.5,6.8h4.6V30h-7.5v-1.1l4.6-6.8H209V20.2z"/>
		</g>
	</g>
</g>
</svg>